<svg version="1.1" id="Layer_1" xmlns="http://www.w3.org/2000/svg" xmlns:xlink="http://www.w3.org/1999/xlink" x="0px" y="0px"
	 viewBox="0 0 2000 2000" style="enable-background:new 0 0 2000 2000;" xml:space="preserve">
<style type="text/css">
	.st0{fill:#31CDFF;}
	.st1{font-family:'Cairo-Bold';}
	.st2{font-size:319.2188px;}
	.st3{fill:#FFFFFF;}
	.st4{font-size:135.5599px;}
</style>
<g>
	<g>
		<path class="st0" d="M814.75,1023.59c-9.08-14.91-22.97-26.36-41.66-34.37c-18.71-8-45.11-15.04-79.2-21.12l-20.63-4.14
			c-22.55-3.86-40.01-7.59-52.38-11.19c-12.38-3.58-22.42-9.38-30.11-17.39c-7.71-7.99-11.55-19.46-11.55-34.37
			c0-20.98,7.83-36.44,23.51-46.38c12.05-7.65,28.9-12.35,50.56-14.11c6.5-0.54,13.44-0.8,20.8-0.8c9.05,0,19.03,0.32,29.96,0.97
			c29.59,1.74,66.08,5.84,109.46,12.29l1.65-53.01l-2.37-0.42l-20.73-3.72c-32.83-5.78-65.1-9.24-96.84-10.36
			c-7.63-0.27-15.22-0.41-22.78-0.41c-4.27,0-8.45,0.07-12.55,0.22c-43.46,1.47-77.5,10.8-102.12,27.94
			c-5.68,3.96-10.76,8.49-15.24,13.6c-16.8,19.13-25.19,46.34-25.19,81.65c0,24.84,4.67,44.3,14.03,58.38
			c9.34,14.08,23.37,24.99,42.07,32.72c18.69,7.74,44.55,14.36,77.55,19.88l20.62,3.31c22.55,3.31,40.02,6.91,52.39,10.77
			c12.37,3.86,22.55,10.22,30.52,19.04c7.97,8.84,11.97,21.82,11.97,38.93c0,23.75-8.12,41-24.34,51.76
			c-8.88,5.9-20.28,10.18-34.19,12.84c-11.5,2.21-24.71,3.31-39.65,3.31c-7.87,0-16.88-0.32-27.05-0.95
			c-28.94-1.8-67.22-6.17-114.84-13.13l-3.3,53.84l24.75,4.14c0.64,0.1,1.29,0.21,1.93,0.31c35.45,5.67,66.79,9.2,94.02,10.59
			c8.88,0.46,17.32,0.69,25.32,0.69c18,0,34.45-1.16,49.36-3.47c29.72-4.6,53.28-13.8,70.67-27.58
			c6.31-5.01,11.87-10.72,16.65-17.13c15.03-20.1,22.54-47.1,22.54-81.02C828.36,1059.2,823.82,1038.49,814.75,1023.59z"/>
	</g>
	<text transform="matrix(0.9843 0 0 1 817.1477 1013.4658)" class="st0 st1 st2">ignal</text>
	<text transform="matrix(1 0 0 1 836.6282 1182.9646)" class="st3 st1 st4">ampler</text>
</g>
</svg>
