<svg width="928" height="486" xmlns="http://www.w3.org/2000/svg" xml:space="preserve" version="1.1">

 <g>
  <title>Layer 1</title>
  <g id="svg_1">
   <g id="svg_2">
    <path id="svg_3" fill="#31CDFF" d="m297.40997,294.74961c-9.08,-14.91 -22.97,-26.36 -41.66,-34.37c-18.71,-8 -45.11,-15.04 -79.2,-21.12l-20.63,-4.14c-22.55,-3.86 -40.01,-7.59 -52.38,-11.19c-12.38,-3.58 -22.42,-9.38 -30.11,-17.39c-7.71,-7.99 -11.55,-19.46 -11.55,-34.37c0,-20.98 7.83,-36.44 23.51,-46.38c12.05,-7.65 28.9,-12.35 50.56,-14.11c6.5,-0.54 13.44,-0.8 20.8,-0.8c9.05,0 19.03,0.32 29.96,0.97c29.59,1.74 66.08,5.84 109.46,12.29l1.65,-53.01l-2.37,-0.42l-20.73,-3.72c-32.83,-5.78 -65.1,-9.24 -96.84,-10.36c-7.63,-0.27 -15.22,-0.41 -22.78,-0.41c-4.27,0 -8.45,0.07 -12.55,0.22c-43.46,1.47 -77.5,10.8 -102.12,27.94c-5.68,3.96 -10.76,8.49 -15.24,13.6c-16.8,19.13 -25.19,46.34 -25.19,81.65c0,24.84 4.67,44.3 14.03,58.38c9.34,14.08 23.37,24.99 42.07,32.72c18.69,7.74 44.55,14.36 77.55,19.88l20.62,3.31c22.55,3.31 40.02,6.91 52.39,10.77c12.37,3.86 22.55,10.22 30.52,19.04c7.97,8.84 11.97,21.82 11.97,38.93c0,23.75 -8.12,41 -24.34,51.76c-8.88,5.9 -20.28,10.18 -34.19,12.84c-11.5,2.21 -24.71,3.31 -39.65,3.31c-7.87,0 -16.88,-0.32 -27.05,-0.95c-28.94,-1.8 -67.22,-6.17 -114.84,-13.13l-3.3,53.84l24.75,4.14c0.64,0.1 1.29,0.21 1.93,0.31c35.45,5.67 66.79,9.2 94.02,10.59c8.88,0.46 17.32,0.69 25.32,0.69c18,0 34.45,-1.16 49.36,-3.47c29.72,-4.6 53.28,-13.8 70.67,-27.58c6.31,-5.01 11.87,-10.72 16.65,-17.13c15.03,-20.1 22.54,-47.1 22.54,-81.02c0,-26.5 -4.54,-47.21 -13.61,-62.11z" class="st0"/>
   </g>
   <text x="-525.59181" y="-728.84039" id="svg_4" font-size="319.2188px" font-family="'Cairo-Bold'" fill="#31CDFF" class="st0 st1 st2" transform="matrix(0.9843 0 0 1 817.148 1013.47)">ignal</text>
   <text x="-517.34003" y="-728.84039" id="svg_5" font-size="135.5599px" fill="#FFFFFF" font-family="'Cairo-Bold'" class="st3 st1 st4" transform="matrix(1 0 0 1 836.628 1182.96)">ampler</text>
  </g>
 </g>
</svg>